<?xml version="1.0" encoding="UTF-8"?>
<svg version="1.1" xmlns="http://www.w3.org/2000/svg" width="260" height="80">
<path d="M0 0 C2.4140625 0.41796875 2.4140625 0.41796875 5.4765625 2.60546875 C7.38082854 5.3697259 8.13016518 7.10583334 8.4140625 10.41796875 C9.06632812 10.3715625 9.71859375 10.32515625 10.390625 10.27734375 C16.37639619 10.03014376 19.64453034 10.44335861 24.4140625 14.41796875 C25.0328125 14.99546875 25.6515625 15.57296875 26.2890625 16.16796875 C29.62071843 18.12776636 32.59556918 17.60889342 36.4140625 17.41796875 C36.6409375 16.67546875 36.8678125 15.93296875 37.1015625 15.16796875 C38.74651834 11.72139462 40.11569867 10.35396491 43.4140625 8.41796875 C46.8950168 7.93691557 50.20545721 7.81366611 53.4140625 9.41796875 C55.29879109 9.57141084 57.18834124 9.66756446 59.078125 9.734375 C60.19960937 9.77626953 61.32109375 9.81816406 62.4765625 9.86132812 C63.6521875 9.90064453 64.8278125 9.93996094 66.0390625 9.98046875 C67.22242188 10.02365234 68.40578125 10.06683594 69.625 10.11132812 C72.55456578 10.21764301 75.48421838 10.31967517 78.4140625 10.41796875 C78.4140625 12.06796875 78.4140625 13.71796875 78.4140625 15.41796875 C85.3440625 15.41796875 92.2740625 15.41796875 99.4140625 15.41796875 C100.41761004 20.43570644 99.96396905 23.04699901 98.46484375 27.6953125 C98.1440107 28.72876549 98.1440107 28.72876549 97.81669617 29.78309631 C97.3623872 31.23633176 96.90228327 32.68776671 96.43676758 34.13745117 C95.73145613 36.34018563 95.04906697 38.54908154 94.36914062 40.75976562 C93.92323397 42.17620978 93.47601039 43.59224017 93.02734375 45.0078125 C92.82611404 45.66112045 92.62488434 46.31442841 92.41755676 46.98753357 C90.71290977 52.22460836 88.4566231 56.68741563 84.21484375 60.28125 C80.28848598 61.87479269 76.79176254 61.7424493 72.6015625 61.60546875 C71.81330078 61.59193359 71.02503906 61.57839844 70.21289062 61.56445312 C68.27965081 61.52930331 66.34676568 61.47550236 64.4140625 61.41796875 C64.4140625 59.10796875 64.4140625 56.79796875 64.4140625 54.41796875 C63.34446289 54.45349854 62.27486328 54.48902832 61.17285156 54.52563477 C57.19971196 54.65613007 53.22637185 54.7792453 49.25292969 54.90014648 C47.53411613 54.95347444 45.81536322 55.00879639 44.09667969 55.06616211 C41.62448196 55.14833053 39.15215395 55.22329604 36.6796875 55.296875 C35.91287659 55.32391006 35.14606567 55.35094513 34.35601807 55.37879944 C30.81739958 55.4775066 27.82110353 55.28695662 24.4140625 54.41796875 C21.97466394 54.35858795 19.53364066 54.3570844 17.09375 54.390625 C15.65755441 54.40326236 14.22135638 54.41562397 12.78515625 54.42773438 C10.52905599 54.45262689 8.27308356 54.48070399 6.01708984 54.51391602 C3.83430136 54.54402835 1.65167922 54.56185658 -0.53125 54.578125 C-1.83594238 54.59496338 -3.14063477 54.61180176 -4.48486328 54.62915039 C-7.5859375 54.41796875 -7.5859375 54.41796875 -9.5859375 52.41796875 C-10.10800781 52.70671875 -10.63007812 52.99546875 -11.16796875 53.29296875 C-18.12082231 56.79983709 -24.42418427 57.73306511 -32.0390625 55.79296875 C-39.3609518 53.00367759 -43.67580459 47.7925369 -47.4609375 41.10546875 C-49.84683381 33.28503083 -50.61117081 25.15981581 -47.5859375 17.41796875 C-43.82479788 10.40548253 -39.304432 4.98797312 -31.7421875 1.953125 C-25.94137393 0.51343033 -19.71488103 0.69564862 -14.0859375 2.60546875 C-13.2609375 2.87359375 -12.4359375 3.14171875 -11.5859375 3.41796875 C-10.97621094 2.95003906 -10.36648437 2.48210937 -9.73828125 2 C-6.52879577 -0.3590592 -3.87511665 -0.12002574 0 0 Z " fill="#EBEFEC" transform="translate(62.5859375,-0.41796875)"/>
<path d="M0 0 C2.4140625 0.41796875 2.4140625 0.41796875 5.4765625 2.60546875 C7.38082854 5.3697259 8.13016518 7.10583334 8.4140625 10.41796875 C9.06632812 10.3715625 9.71859375 10.32515625 10.390625 10.27734375 C16.37639619 10.03014376 19.64453034 10.44335861 24.4140625 14.41796875 C25.0328125 14.99546875 25.6515625 15.57296875 26.2890625 16.16796875 C29.62071843 18.12776636 32.59556918 17.60889342 36.4140625 17.41796875 C36.6409375 16.67546875 36.8678125 15.93296875 37.1015625 15.16796875 C38.74651834 11.72139462 40.11569867 10.35396491 43.4140625 8.41796875 C46.8950168 7.93691557 50.20545721 7.81366611 53.4140625 9.41796875 C55.29879109 9.57141084 57.18834124 9.66756446 59.078125 9.734375 C60.19960937 9.77626953 61.32109375 9.81816406 62.4765625 9.86132812 C63.6521875 9.90064453 64.8278125 9.93996094 66.0390625 9.98046875 C67.22242188 10.02365234 68.40578125 10.06683594 69.625 10.11132812 C72.55456578 10.21764301 75.48421838 10.31967517 78.4140625 10.41796875 C78.4140625 12.06796875 78.4140625 13.71796875 78.4140625 15.41796875 C85.3440625 15.41796875 92.2740625 15.41796875 99.4140625 15.41796875 C100.41761004 20.43570644 99.96396905 23.04699901 98.46484375 27.6953125 C98.1440107 28.72876549 98.1440107 28.72876549 97.81669617 29.78309631 C97.3623872 31.23633176 96.90228327 32.68776671 96.43676758 34.13745117 C95.73145613 36.34018563 95.04906697 38.54908154 94.36914062 40.75976562 C93.92323397 42.17620978 93.47601039 43.59224017 93.02734375 45.0078125 C92.82611404 45.66112045 92.62488434 46.31442841 92.41755676 46.98753357 C90.71290977 52.22460836 88.4566231 56.68741563 84.21484375 60.28125 C80.28848598 61.87479269 76.79176254 61.7424493 72.6015625 61.60546875 C71.81330078 61.59193359 71.02503906 61.57839844 70.21289062 61.56445312 C68.27965081 61.52930331 66.34676568 61.47550236 64.4140625 61.41796875 C64.4140625 59.10796875 64.4140625 56.79796875 64.4140625 54.41796875 C63.34446289 54.45349854 62.27486328 54.48902832 61.17285156 54.52563477 C57.19971196 54.65613007 53.22637185 54.7792453 49.25292969 54.90014648 C47.53411613 54.95347444 45.81536322 55.00879639 44.09667969 55.06616211 C41.62448196 55.14833053 39.15215395 55.22329604 36.6796875 55.296875 C35.91287659 55.32391006 35.14606567 55.35094513 34.35601807 55.37879944 C30.81739958 55.4775066 27.82110353 55.28695662 24.4140625 54.41796875 C21.97466394 54.35858795 19.53364066 54.3570844 17.09375 54.390625 C15.65755441 54.40326236 14.22135638 54.41562397 12.78515625 54.42773438 C10.52905599 54.45262689 8.27308356 54.48070399 6.01708984 54.51391602 C3.83430136 54.54402835 1.65167922 54.56185658 -0.53125 54.578125 C-1.83594238 54.59496338 -3.14063477 54.61180176 -4.48486328 54.62915039 C-7.5859375 54.41796875 -7.5859375 54.41796875 -9.5859375 52.41796875 C-10.10800781 52.70671875 -10.63007812 52.99546875 -11.16796875 53.29296875 C-18.12082231 56.79983709 -24.42418427 57.73306511 -32.0390625 55.79296875 C-39.3609518 53.00367759 -43.67580459 47.7925369 -47.4609375 41.10546875 C-49.84683381 33.28503083 -50.61117081 25.15981581 -47.5859375 17.41796875 C-43.82479788 10.40548253 -39.304432 4.98797312 -31.7421875 1.953125 C-25.94137393 0.51343033 -19.71488103 0.69564862 -14.0859375 2.60546875 C-13.2609375 2.87359375 -12.4359375 3.14171875 -11.5859375 3.41796875 C-10.97621094 2.95003906 -10.36648437 2.48210937 -9.73828125 2 C-6.52879577 -0.3590592 -3.87511665 -0.12002574 0 0 Z M-8.5859375 5.79296875 C-9.76063664 7.38384782 -9.76063664 7.38384782 -9.5859375 9.41796875 C-10.6584375 8.75796875 -11.7309375 8.09796875 -12.8359375 7.41796875 C-18.72849472 4.48738967 -25.39980364 4.11028553 -31.69921875 6.078125 C-37.25270604 8.9225941 -42.3750619 14.55564702 -44.5859375 20.41796875 C-45.57005808 29.52108408 -45.85304144 37.82016824 -40.30859375 45.52734375 C-36.6476367 49.54526486 -32.7131185 52.10979744 -27.16796875 52.65625 C-20.7265335 52.82886956 -15.85316748 52.32360187 -10.5859375 48.41796875 C-7.76229304 45.72107142 -5.83674083 43.17037873 -4.5859375 39.41796875 C-4.0909375 44.86296875 -4.0909375 44.86296875 -3.5859375 50.41796875 C0.70571512 50.44688824 4.99734286 50.46473993 9.2890625 50.48046875 C10.51238281 50.48884766 11.73570313 50.49722656 12.99609375 50.50585938 C14.16269531 50.50908203 15.32929687 50.51230469 16.53125 50.515625 C17.61003418 50.52086182 18.68881836 50.52609863 19.80029297 50.53149414 C22.39638436 50.59679981 22.39638436 50.59679981 24.4140625 49.41796875 C25.02121094 49.72347656 25.62835938 50.02898438 26.25390625 50.34375 C28.70730219 51.56379319 30.25789322 51.65607004 32.9765625 51.60546875 C33.74097656 51.59902344 34.50539063 51.59257813 35.29296875 51.5859375 C37.60303966 51.4885038 37.60303966 51.4885038 40.4140625 50.41796875 C42.55200775 50.33458835 44.69248259 50.31063128 46.83203125 50.3203125 C48.08564453 50.32353516 49.33925781 50.32675781 50.63085938 50.33007812 C52.59635742 50.34264648 52.59635742 50.34264648 54.6015625 50.35546875 C55.93684731 50.36048558 57.27213391 50.36504816 58.60742188 50.36914062 C61.87634723 50.3809418 65.14518241 50.39740578 68.4140625 50.41796875 C68.4140625 52.72796875 68.4140625 55.03796875 68.4140625 57.41796875 C76.11220354 57.98838791 76.11220354 57.98838791 83.4140625 56.04296875 C90.59317416 46.6203847 92.58243975 32.74445974 95.4140625 21.41796875 C87.8240625 21.41796875 80.2340625 21.41796875 72.4140625 21.41796875 C72.4140625 19.10796875 72.4140625 16.79796875 72.4140625 14.41796875 C71.78314697 14.3929126 71.15223145 14.36785645 70.50219727 14.34204102 C67.66009425 14.22642738 64.81835167 14.10354559 61.9765625 13.98046875 C60.98333984 13.94115234 59.99011719 13.90183594 58.96679688 13.86132812 C58.02255859 13.81943359 57.07832031 13.77753906 56.10546875 13.734375 C55.23092041 13.69771729 54.35637207 13.66105957 53.45532227 13.62329102 C51.4140625 13.41796875 51.4140625 13.41796875 50.4140625 12.41796875 C46.87393172 12.02462089 45.05828446 11.96527224 42.1015625 14.04296875 C40.10172911 16.85754908 39.72377197 19.01116462 39.4140625 22.41796875 C38.7540625 22.08796875 38.0940625 21.75796875 37.4140625 21.41796875 C35.77150459 21.29681954 34.12353772 21.24256108 32.4765625 21.23046875 C31.16365234 21.20919922 31.16365234 21.20919922 29.82421875 21.1875 C27.15161915 21.25133526 27.15161915 21.25133526 24.4140625 23.41796875 C24.3315625 22.84046875 24.2490625 22.26296875 24.1640625 21.66796875 C23.19829642 18.7706705 21.68684354 17.41526118 19.4140625 15.41796875 C16.52990367 13.97588934 13.99684722 14.32401988 10.7890625 14.35546875 C9.00628906 14.36900391 9.00628906 14.36900391 7.1875 14.3828125 C5.81464844 14.40021484 5.81464844 14.40021484 4.4140625 14.41796875 C4.4759375 13.32484375 4.5378125 12.23171875 4.6015625 11.10546875 C4.67784728 7.60188369 4.67784728 7.60188369 3.4140625 5.48046875 C-0.38332571 3.46310626 -5.01192182 3.33583297 -8.5859375 5.79296875 Z " fill="#252222" transform="translate(62.5859375,-0.41796875)"/>
<path d="M0 0 C0.97582031 0.0721875 1.95164063 0.144375 2.95703125 0.21875 C4.22933594 0.3115625 5.50164062 0.404375 6.8125 0.5 C8.07707031 0.5928125 9.34164062 0.685625 10.64453125 0.78125 C12.75978517 0.91914781 14.88025592 1 17 1 C21.66666667 1 26.33333333 1 31 1 C31.495 1.99 31.495 1.99 32 3 C32.99 2.34 33.98 1.68 35 1 C41.32258065 0.5483871 41.32258065 0.5483871 45 3 C45.6875 5.625 45.6875 5.625 46 8 C44.68 8.33 43.36 8.66 42 9 C42.66 9.53625 43.32 10.0725 44 10.625 C46 13 46 13 46.4375 16.0625 C45.94820361 19.34777577 45.57160648 20.03549884 43 22 C40.84375 22.3984375 40.84375 22.3984375 38.5 22.375 C37.7265625 22.38273437 36.953125 22.39046875 36.15625 22.3984375 C33.47022955 21.90210763 32.56788224 21.2211665 31 19 C31 17.68 31 16.36 31 15 C33.875 14.875 33.875 14.875 37 15 C37.99 15.99 37.99 15.99 39 17 C38.12178753 14.76399722 38.12178753 14.76399722 35.5625 13.6875 C32.58565053 11.72713571 31.99694959 10.35337589 31 7 C31 8.32 31 9.64 31 11 C30.34 11.99 29.68 12.98 29 14 C28.63858045 16.32914823 28.30300475 18.66253478 28 21 C27.505 21.495 27.505 21.495 27 22 C25.02 22 23.04 22 21 22 C21 17.05 21 12.1 21 7 C20.01 7 19.02 7 18 7 C17.34 8.65 16.68 10.3 16 12 C16.495 12.495 16.495 12.495 17 13 C17.23192865 14.51469448 17.41215238 16.03754562 17.5625 17.5625 C17.64628906 18.38878906 17.73007813 19.21507813 17.81640625 20.06640625 C17.87699219 20.70449219 17.93757813 21.34257813 18 22 C15.69 22 13.38 22 11 22 C11 19.36 11 16.72 11 14 C10.34 14 9.68 14 9 14 C9 16.64 9 19.28 9 22 C4.71 22 0.42 22 -4 22 C-4 21.01 -4 20.02 -4 19 C-5.32 19 -6.64 19 -8 19 C-8 19.99 -8 20.98 -8 22 C-10.31 22 -12.62 22 -15 22 C-14.505 17.545 -14.505 17.545 -14 13 C-15.98 13.66 -17.96 14.32 -20 15 C-20 17.31 -20 19.62 -20 22 C-22.31 22 -24.62 22 -27 22 C-27 15.07 -27 8.14 -27 1 C-16.375 0.875 -16.375 0.875 -13 2 C-12.01 1.67 -11.02 1.34 -10 1 C-8.60560336 0.93334624 -7.20830125 0.91461801 -5.8125 0.9375 C-3.9253125 0.9684375 -3.9253125 0.9684375 -2 1 C-1.01 4.63 -0.02 8.26 1 12 C1.33 8.37 1.66 4.74 2 1 C1.34 0.67 0.68 0.34 0 0 Z M-13 3 C-12.67 4.65 -12.34 6.3 -12 8 C-11.67 6.68 -11.34 5.36 -11 4 C-11.66 3.67 -12.32 3.34 -13 3 Z M38 5 C39 8 39 8 39 8 Z M-21 6 C-20.01 7.485 -20.01 7.485 -19 9 C-19 8.01 -19 7.02 -19 6 C-19.66 6 -20.32 6 -21 6 Z M9 6 C9 6.99 9 7.98 9 9 C9.66 9 10.32 9 11 9 C11 8.01 11 7.02 11 6 C10.34 6 9.68 6 9 6 Z M-13 10 C-12 12 -12 12 -12 12 Z M-7 11 C-6 14 -6 14 -6 14 Z M2 18 C3 20 3 20 3 20 Z " fill="#211D1D" transform="translate(191,32)"/>
<path d="M0 0 C4.9710149 2.53240382 8.49430567 5.98861134 11 11 C12.14534678 26.35891258 12.14534678 26.35891258 8.390625 32.4140625 C5.24669709 35.99955332 1.66904945 38.47127401 -3.05078125 39.40625 C-7.93635354 39.63392716 -11.78390683 38.35128273 -16 36 C-20.96544267 30.90035617 -22.29879098 26.08135082 -22.375 19.0625 C-22.28226086 13.50974419 -22.01577681 10.12145515 -18 6 C-12.40388275 0.68149692 -7.63376587 -0.94114922 0 0 Z " fill="#0D9547" transform="translate(44,9)"/>
<path d="M0 0 C0.70125 0.06703125 1.4025 0.1340625 2.125 0.203125 C4 0.75 4 0.75 6 3.75 C6.3359375 6.96484375 6.3359375 6.96484375 6.375 10.6875 C6.40335937 11.91339844 6.43171875 13.13929687 6.4609375 14.40234375 C6 17.75 6 17.75 4.13671875 20.14453125 C-1.02540511 24.02320201 -8.80012321 23.06842267 -15 22.75 C-16.32 22.42 -17.64 22.09 -19 21.75 C-19 16.47 -19 11.19 -19 5.75 C-19.99 5.75 -20.98 5.75 -22 5.75 C-21.95359375 6.56984375 -21.9071875 7.3896875 -21.859375 8.234375 C-21.80523437 9.85085937 -21.80523437 9.85085937 -21.75 11.5 C-21.70359375 12.56734375 -21.6571875 13.6346875 -21.609375 14.734375 C-22 17.75 -22 17.75 -23.7890625 20.09765625 C-26.76337953 22.32051156 -29.35260804 22.41227852 -33 22.75 C-33.66 23.08 -34.32 23.41 -35 23.75 C-37.90901247 23.38637344 -40.36799198 23.06600401 -43 21.75 C-43 20.43 -43 19.11 -43 17.75 C-43.99 17.75 -44.98 17.75 -46 17.75 C-46.33 19.07 -46.66 20.39 -47 21.75 C-51.40914783 22.85228696 -55.48382401 22.82654536 -60 22.75 C-60 22.42 -60 22.09 -60 21.75 C-57.69 21.75 -55.38 21.75 -53 21.75 C-52.8453125 19.89375 -52.8453125 19.89375 -52.6875 18 C-52.04831894 12.10637468 -50.53722003 6.46381786 -49 0.75 C-46.03 0.75 -43.06 0.75 -40 0.75 C-39.34 3.72 -38.68 6.69 -38 9.75 C-37.67 6.78 -37.34 3.81 -37 0.75 C-26.66666667 0.75 -16.33333333 0.75 -6 0.75 C-3.64710301 -0.4264485 -2.58181049 -0.28475851 0 0 Z M-12 5.75 C-12 11.03 -12 16.31 -12 21.75 C-10.02 21.42 -8.04 21.09 -6 20.75 C-6.31710938 20.20859375 -6.63421875 19.6671875 -6.9609375 19.109375 C-8.18307974 16.3342851 -8.40943436 14.01791902 -8.625 11 C-8.69976562 10.01515625 -8.77453125 9.0303125 -8.8515625 8.015625 C-8.90054688 7.26796875 -8.94953125 6.5203125 -9 5.75 C-9.99 5.75 -10.98 5.75 -12 5.75 Z M-1 5.75 C-2.25949049 6.78406673 -2.25949049 6.78406673 -2.09765625 9.03515625 C-2.08605469 9.95167969 -2.07445312 10.86820313 -2.0625 11.8125 C-2.05347656 12.73160156 -2.04445312 13.65070312 -2.03515625 14.59765625 C-2.02355469 15.30792969 -2.01195312 16.01820312 -2 16.75 C-1.34 16.75 -0.68 16.75 0 16.75 C0 13.12 0 9.49 0 5.75 C-0.33 5.75 -0.66 5.75 -1 5.75 Z M-45 8.75 C-44 12.75 -44 12.75 -44 12.75 Z " fill="#211D1D" transform="translate(224,9.25)"/>
<path d="M0 0 C0.33 0 0.66 0 1 0 C1 1.65 1 3.3 1 5 C7.93 5 14.86 5 22 5 C23.00354754 10.01773769 22.54990655 12.62903026 21.05078125 17.27734375 C20.7299482 18.31079674 20.7299482 18.31079674 20.40263367 19.36512756 C19.9483247 20.81836301 19.48822077 22.26979796 19.02270508 23.71948242 C18.31739363 25.92221688 17.63500447 28.13111279 16.95507812 30.34179688 C16.50917147 31.75824103 16.06194789 33.17427142 15.61328125 34.58984375 C15.31143669 35.56980568 15.31143669 35.56980568 15.00349426 36.56956482 C13.29884727 41.80663961 11.0425606 46.26944688 6.80078125 49.86328125 C2.87442348 51.45682394 -0.62229996 51.32448055 -4.8125 51.1875 C-5.60076172 51.17396484 -6.38902344 51.16042969 -7.20117188 51.14648438 C-9.13441169 51.11133456 -11.06729682 51.05753361 -13 51 C-13 48.69 -13 46.38 -13 44 C-14.06959961 44.03552979 -15.13919922 44.07105957 -16.24121094 44.10766602 C-20.21435054 44.23816132 -24.18769065 44.36127655 -28.16113281 44.48217773 C-29.87994637 44.53550569 -31.59869928 44.59082764 -33.31738281 44.64819336 C-35.78958054 44.73036178 -38.26190855 44.80532729 -40.734375 44.87890625 C-41.50118591 44.90594131 -42.26799683 44.93297638 -43.05804443 44.96083069 C-46.59370146 45.05945525 -49.59675751 44.88338034 -53 44 C-55.0976396 43.91879767 -57.19768762 43.89244192 -59.296875 43.90234375 C-60.50214844 43.90556641 -61.70742187 43.90878906 -62.94921875 43.91210938 C-64.83060547 43.92467773 -64.83060547 43.92467773 -66.75 43.9375 C-68.01972656 43.94201172 -69.28945312 43.94652344 -70.59765625 43.95117188 C-73.73181836 43.96295444 -76.86588541 43.97940584 -80 44 C-80.495 42.515 -80.495 42.515 -81 41 C-80.25838623 40.98018066 -79.51677246 40.96036133 -78.75268555 40.93994141 C-75.39726166 40.84477072 -72.04246714 40.73505906 -68.6875 40.625 C-67.52025391 40.5940625 -66.35300781 40.563125 -65.15039062 40.53125 C-63.47299805 40.47324219 -63.47299805 40.47324219 -61.76171875 40.4140625 C-60.73006592 40.3826416 -59.69841309 40.3512207 -58.63549805 40.31884766 C-55.77156764 40.17325371 -55.77156764 40.17325371 -53 38 C-52.43410156 38.32613281 -51.86820313 38.65226562 -51.28515625 38.98828125 C-48.7850998 40.09514385 -47.15223557 40.23802807 -44.4375 40.1875 C-43.67308594 40.18105469 -42.90867188 40.17460938 -42.12109375 40.16796875 C-39.81102284 40.07053505 -39.81102284 40.07053505 -37 39 C-34.86035593 38.98402849 -32.71996285 39.03402866 -30.58203125 39.12109375 C-28.70161133 39.19360352 -28.70161133 39.19360352 -26.78320312 39.26757812 C-25.47287109 39.32365234 -24.16253906 39.37972656 -22.8125 39.4375 C-21.4772337 39.49074235 -20.14194728 39.5434826 -18.80664062 39.59570312 C-15.53752856 39.72552346 -12.26871081 39.86049536 -9 40 C-9 42.31 -9 44.62 -9 47 C-7.10342857 46.96672682 -5.20747679 46.89707677 -3.3125 46.8125 C-2.25675781 46.77769531 -1.20101562 46.74289063 -0.11328125 46.70703125 C4.10145289 45.74985825 5.39416131 44.45262714 8 41 C9.48800141 37.66321429 10.5666479 34.24354188 11.625 30.75 C11.91117187 29.84636719 12.19734375 28.94273438 12.4921875 28.01171875 C13.03399627 26.30009559 13.56954506 24.58646628 14.09619141 22.87011719 C15.34725852 18.89725252 16.68285071 14.95144788 18 11 C10.41 11 2.82 11 -5 11 C-4.01 10.34 -3.02 9.68 -2 9 C-1.30840599 7.15274948 -1.30840599 7.15274948 -1 5 C-0.814375 4.0925 -0.62875 3.185 -0.4375 2.25 C-0.293125 1.5075 -0.14875 0.765 0 0 Z " fill="#1E1C1C" transform="translate(140,10)"/>
<path d="M0 0 C2.57518113 0.01386992 3.81680212 0.09494693 5.85546875 1.70703125 C9.86630076 6.54120121 10.42734916 9.51217837 10.5 15.6875 C10.52578125 16.99203125 10.5515625 18.2965625 10.578125 19.640625 C10.15087611 24.58450502 8.76325156 27.92424844 5.25 31.4375 C1.9375 31.875 1.9375 31.875 -1.75 31.4375 C-5.48989546 28.52869242 -7.31595145 25.89758051 -8.75 21.4375 C-10.05535856 8.45980731 -10.05535856 8.45980731 -6.8125 3.625 C-3.81420546 0.44499064 -3.81420546 0.44499064 0 0 Z " fill="#EFF5F0" transform="translate(37.75,12.5625)"/>
<path d="M0 0 C2.5575 -0.061875 5.115 -0.12375 7.75 -0.1875 C8.94834473 -0.22846802 8.94834473 -0.22846802 10.17089844 -0.27026367 C13.31118207 -0.30704533 15.66060246 -0.16677751 18.49609375 1.2265625 C20.41060437 3.4841932 20.45229011 4.63654849 20.3125 7.5625 C20.28800781 8.34753906 20.26351562 9.13257813 20.23828125 9.94140625 C20 12 20 12 19 14 C18.34 14 17.68 14 17 14 C17 14.66 17 15.32 17 16 C17.66 16 18.32 16 19 16 C20.26237731 18.52475462 20.09856404 20.31200466 20.0625 23.125 C20.05347656 24.03507812 20.04445313 24.94515625 20.03515625 25.8828125 C20.02355469 26.58148438 20.01195313 27.28015625 20 28 C18.35 28 16.7 28 15 28 C14.34 25.03 13.68 22.06 13 19 C10.69 18.67 8.38 18.34 6 18 C6 21.3 6 24.6 6 28 C4.02 28 2.04 28 0 28 C0 18.76 0 9.52 0 0 Z " fill="#139542" transform="translate(63,18)"/>
<path d="M0 0 C4.46328069 0.74388012 6.37108492 1.23589793 9.125 4.875 C10.375 7.5625 10.375 7.5625 10.375 12.5625 C5.755 12.5625 1.135 12.5625 -3.625 12.5625 C-2.965 13.8825 -2.305 15.2025 -1.625 16.5625 C0.04111905 16.605221 1.70882885 16.60313832 3.375 16.5625 C3.705 16.2325 4.035 15.9025 4.375 15.5625 C6.04117115 15.52186168 7.70888095 15.519779 9.375 15.5625 C7.92672414 20.1487069 7.92672414 20.1487069 5.625 21.875 C2.58911551 22.80263137 0.54333104 23.00606634 -2.625 22.5625 C-6.05265324 20.49477415 -8.33209412 18.44121765 -9.625 14.5625 C-10.24552395 9.95289352 -9.84974757 7.27955599 -7.0625 3.625 C-4.5210803 0.94539435 -3.83097706 0.59446196 0 0 Z " fill="#09923E" transform="translate(94.625,24.4375)"/>
<path d="M0 0 C1.98 0 3.96 0 6 0 C8.28571429 8.42857143 8.28571429 8.42857143 8 13 C8.66 13 9.32 13 10 13 C10.144375 11.783125 10.28875 10.56625 10.4375 9.3125 C10.82780953 6.17329623 11.32351856 3.0924866 12 0 C13.98 0 15.96 0 18 0 C17.04606992 3.39708591 16.08607958 6.79243049 15.125 10.1875 C14.85558594 11.14720703 14.58617187 12.10691406 14.30859375 13.09570312 C14.04433594 14.02705078 13.78007812 14.95839844 13.5078125 15.91796875 C13.26691895 16.77156982 13.02602539 17.6251709 12.77783203 18.50463867 C11.97457909 21.08155278 11.12684713 23.54586466 10 26 C7.29120665 27.35439668 4.99066732 27.06501451 2 27 C2 25.35 2 23.7 2 22 C2.99 21.67 3.98 21.34 5 21 C4.3900874 16.01155691 3.36525565 11.39844654 1.9375 6.5625 C1.57527344 5.32628906 1.21304688 4.09007812 0.83984375 2.81640625 C0.42412109 1.42228516 0.42412109 1.42228516 0 0 Z " fill="#0C9341" transform="translate(134,26)"/>
<path d="M0 0 C0.33 0 0.66 0 1 0 C1.125 7.75 1.125 7.75 0 10 C-0.66 10 -1.32 10 -2 10 C-2 10.66 -2 11.32 -2 12 C-1.34 12 -0.68 12 0 12 C1.26237731 14.52475462 1.09856404 16.31200466 1.0625 19.125 C1.05347656 20.03507812 1.04445313 20.94515625 1.03515625 21.8828125 C1.02355469 22.58148438 1.01195313 23.28015625 1 24 C-0.65 24 -2.3 24 -4 24 C-4.66 21.03 -5.32 18.06 -6 15 C-8.31 14.67 -10.62 14.34 -13 14 C-13 13.67 -13 13.34 -13 13 C-11.02 13 -9.04 13 -7 13 C-7 11.68 -7 10.36 -7 9 C-8.98 9 -10.96 9 -13 9 C-13 6.69 -13 4.38 -13 2 C-4.42857143 1.71428571 -4.42857143 1.71428571 -1 4 C-0.67 2.68 -0.34 1.36 0 0 Z " fill="#159648" transform="translate(82,22)"/>
<path d="M0 0 C0.33 0 0.66 0 1 0 C1 1.65 1 3.3 1 5 C7.93 5 14.86 5 22 5 C22.92834609 9.64173044 23.06302531 10.91559531 21.75 15.125 C21.49734375 15.97320312 21.2446875 16.82140625 20.984375 17.6953125 C19.95923334 20.09544575 19.03988927 21.39122135 17 23 C16.34 23 15.68 23 15 23 C15.30893932 21.3743193 15.6222695 19.74947252 15.9375 18.125 C16.11152344 17.22007813 16.28554687 16.31515625 16.46484375 15.3828125 C17 13 17 13 18 11 C10.41 11 2.82 11 -5 11 C-4.01 10.34 -3.02 9.68 -2 9 C-1.30840599 7.15274948 -1.30840599 7.15274948 -1 5 C-0.814375 4.0925 -0.62875 3.185 -0.4375 2.25 C-0.293125 1.5075 -0.14875 0.765 0 0 Z " fill="#171415" transform="translate(140,10)"/>
<path d="M0 0 C1.63001953 0.01353516 1.63001953 0.01353516 3.29296875 0.02734375 C4.12441406 0.03894531 4.95585938 0.05054687 5.8125 0.0625 C5.8125 1.3825 5.8125 2.7025 5.8125 4.0625 C5.02746094 4.08828125 4.24242188 4.1140625 3.43359375 4.140625 C-5.08422493 4.6004827 -9.78144465 5.65644465 -15.9375 11.8125 C-18.50472259 15.52071041 -19.78846327 18.79175629 -21.1875 23.0625 C-21.5175 21.7425 -21.8475 20.4225 -22.1875 19.0625 C-22.8475 19.0625 -23.5075 19.0625 -24.1875 19.0625 C-23.84982521 13.65970335 -20.77653575 9.87488776 -17.1875 6.0625 C-11.61650419 1.78439567 -7.07666545 -0.07609318 0 0 Z " fill="#1E1B1C" transform="translate(39.1875,0.9375)"/>
<path d="M0 0 C1.65 0 3.3 0 5 0 C5 9.24 5 18.48 5 28 C3.35 28 1.7 28 0 28 C0 18.76 0 9.52 0 0 Z " fill="#0C913A" transform="translate(126,18)"/>
<path d="M0 0 C1.65 0 3.3 0 5 0 C5 9.24 5 18.48 5 28 C3.35 28 1.7 28 0 28 C0 18.76 0 9.52 0 0 Z " fill="#0D9137" transform="translate(117,18)"/>
<path d="M0 0 C0.639375 0.309375 1.27875 0.61875 1.9375 0.9375 C5.92049104 2.31935403 9.81650849 2.6536543 14 3 C13.67 3.66 13.34 4.32 13 5 C4.45009088 6.58502161 -4.59060012 6.12361411 -13.25 6.0625 C-15.10044922 6.05573242 -15.10044922 6.05573242 -16.98828125 6.04882812 C-19.99224069 6.03718487 -22.99609266 6.02083376 -26 6 C-26.33 5.01 -26.66 4.02 -27 3 C-25.87972412 2.970271 -25.87972412 2.970271 -24.73681641 2.93994141 C-21.36584395 2.84491789 -17.99551071 2.73514741 -14.625 2.625 C-13.449375 2.5940625 -12.27375 2.563125 -11.0625 2.53125 C-9.94101563 2.49257813 -8.81953125 2.45390625 -7.6640625 2.4140625 C-6.62717285 2.3826416 -5.5902832 2.3512207 -4.52197266 2.31884766 C-1.83190165 2.24045528 -1.83190165 2.24045528 0 0 Z " fill="#1A1718" transform="translate(86,48)"/>
<path d="M0 0 C1.98 0 3.96 0 6 0 C6 6.6 6 13.2 6 20 C4.02 20 2.04 20 0 20 C0 13.4 0 6.8 0 0 Z " fill="#1F9850" transform="translate(107,26)"/>
<path d="M0 0 C1.98 0 3.96 0 6 0 C6 1.32 6 2.64 6 4 C6.99 4 7.98 4 9 4 C9 5.98 9 7.96 9 10 C7.35 10 5.7 10 4 10 C3.67 11.65 3.34 13.3 3 15 C2.67 15 2.34 15 2 15 C2 13.35 2 11.7 2 10 C1.38125 10.185625 0.7625 10.37125 0.125 10.5625 C-2 11 -2 11 -4 10 C-4 8.02 -4 6.04 -4 4 C-3.01 3.67 -2.02 3.34 -1 3 C-0.67 2.01 -0.34 1.02 0 0 Z " fill="#0F9444" transform="translate(36,22)"/>
<path d="M0 0 C1.25361328 0.05478516 2.50722656 0.10957031 3.79882812 0.16601562 C5.76432617 0.27526367 5.76432617 0.27526367 7.76953125 0.38671875 C9.10475096 0.4499924 10.44003819 0.51185799 11.77539062 0.57226562 C15.04520038 0.7257224 18.31362715 0.89360724 21.58203125 1.07421875 C20.58203125 4.07421875 20.58203125 4.07421875 18.58203125 5.07421875 C15.88547679 5.2309865 13.21073148 5.3325819 10.51171875 5.390625 C9.71549103 5.4114061 8.91926331 5.43218719 8.09890747 5.45359802 C5.5517044 5.51906024 3.004397 5.5779629 0.45703125 5.63671875 C-1.26824002 5.67990715 -2.99350068 5.72352154 -4.71875 5.76757812 C-8.9517156 5.8747382 -13.18478628 5.97601498 -17.41796875 6.07421875 C-17.08796875 5.41421875 -16.75796875 4.75421875 -16.41796875 4.07421875 C-15.30421875 3.92984375 -14.19046875 3.78546875 -13.04296875 3.63671875 C-9.4847636 3.48465283 -9.4847636 3.48465283 -8.0925293 1.54370117 C-5.51258394 -0.72028645 -3.35854012 -0.16716716 0 0 Z " fill="#2F2C2C" transform="translate(108.41796875,48.92578125)"/>
<path d="M0 0 C0.66 0 1.32 0 2 0 C2.33 1.98 2.66 3.96 3 6 C3.66 6 4.32 6 5 6 C5 6.66 5 7.32 5 8 C6.299375 8.185625 7.59875 8.37125 8.9375 8.5625 C9.66839844 8.66691406 10.39929688 8.77132812 11.15234375 8.87890625 C12.06693359 8.93884766 12.06693359 8.93884766 13 9 C13.33 8.67 13.66 8.34 14 8 C15.66617115 7.95936168 17.33388095 7.957279 19 8 C17.55172414 12.5862069 17.55172414 12.5862069 15.25 14.3125 C12.21411551 15.24013137 10.16833104 15.44356634 7 15 C3.57234676 12.93227415 1.29290588 10.87871765 0 7 C-0.03954234 4.66700175 -0.04401732 2.33291811 0 0 Z " fill="#229A53" transform="translate(85,32)"/>
<path d="M0 0 C1.32 0 2.64 0 4 0 C3.67 2.97 3.34 5.94 3 9 C9.27 9 15.54 9 22 9 C22 9.33 22 9.66 22 10 C14.74 10 7.48 10 0 10 C0 8.02 0 6.04 0 4 C-6.93 4 -13.86 4 -21 4 C-21 3.34 -21 2.68 -21 2 C-14.07 2 -7.14 2 0 2 C0 1.34 0 0.68 0 0 Z " fill="#2E2B2C" transform="translate(135,10)"/>
<path d="M0 0 C0.33 0 0.66 0 1 0 C1 4.62 1 9.24 1 14 C9.25 14 17.5 14 26 14 C26 14.33 26 14.66 26 15 C17.75 15 9.5 15 1 15 C1.33 15.99 1.66 16.98 2 18 C-0.375 18.125 -0.375 18.125 -3 18 C-3.66 17.34 -4.32 16.68 -5 16 C-5.66 15.67 -6.32 15.34 -7 15 C-6.360625 14.2575 -5.72125 13.515 -5.0625 12.75 C-3.11769616 10.15692822 -2.55585737 9.05721553 -2 6 C-1.34490497 3.99617991 -0.68025637 1.99541868 0 0 Z " fill="#3B393A" transform="translate(58,36)"/>
<path d="M0 0 C5.27214518 0.25717781 7.87129938 2.17233517 11.6796875 5.52734375 C13 7 13 7 13 9 C14.32 9.33 15.64 9.66 17 10 C15.68 10 14.36 10 13 10 C12.67 10.99 12.34 11.98 12 13 C11.34 13 10.68 13 10 13 C9.5875 12.05125 9.175 11.1025 8.75 10.125 C6.86946892 6.76690879 6.45624765 6.26106333 3 5 C0.75866742 4.71306612 -1.4944319 4.51033409 -3.75 4.375 C-4.92046875 4.30023437 -6.0909375 4.22546875 -7.296875 4.1484375 C-8.18890625 4.09945313 -9.0809375 4.05046875 -10 4 C-10 3.67 -10 3.34 -10 3 C-6.7 3 -3.4 3 0 3 C0 2.01 0 1.02 0 0 Z " fill="#2A2728" transform="translate(77,10)"/>
<path d="M0 0 C8 -0.30769231 8 -0.30769231 11 2 C11.9375 3.9375 11.9375 3.9375 12 6 C10.796875 7.6171875 10.796875 7.6171875 9 9 C6.73828125 9.29296875 6.73828125 9.29296875 4.3125 9.1875 C3.10013672 9.14689453 3.10013672 9.14689453 1.86328125 9.10546875 C1.24839844 9.07066406 0.63351563 9.03585938 0 9 C0.66 6.36 1.32 3.72 2 1 C1.34 0.67 0.68 0.34 0 0 Z " fill="#129440" transform="translate(91,25)"/>
<path d="M0 0 C3.3 0 6.6 0 10 0 C10 2.97 10 5.94 10 9 C6.7 9 3.4 9 0 9 C0 6.03 0 3.06 0 0 Z M8 2 C9 4 9 4 9 4 Z M1 3 C2 5 2 5 2 5 Z " fill="#000000" transform="translate(242,71)"/>
<path d="M0 0 C2.64 0 5.28 0 8 0 C8.70074844 3.153368 9 5.72724974 9 9 C8.443125 8.814375 7.88625 8.62875 7.3125 8.4375 C4.600867 7.92448835 2.65628961 8.3359276 0 9 C0 6.03 0 3.06 0 0 Z " fill="#000000" transform="translate(158,71)"/>
<path d="M0 0 C2.64 0 5.28 0 8 0 C9.10844919 3.32534757 8.84454356 5.62182575 8 9 C5.36 9 2.72 9 0 9 C0 6.03 0 3.06 0 0 Z " fill="#000000" transform="translate(10,71)"/>
<path d="M0 0 C2.29141286 -0.05384521 4.58318188 -0.09272087 6.875 -0.125 C8.78925781 -0.15980469 8.78925781 -0.15980469 10.7421875 -0.1953125 C14 0 14 0 16 2 C15.63318342 4.93453261 15.13562754 5.86437246 13 8 C12.835 7.360625 12.67 6.72125 12.5 6.0625 C11.218214 3.83880759 11.218214 3.83880759 9.0859375 3.51171875 C7.06424845 3.2724022 5.03158061 3.13106972 3 3 C3 5.31 3 7.62 3 10 C2.01 10 1.02 10 0 10 C0 6.7 0 3.4 0 0 Z " fill="#05954B" transform="translate(65,20)"/>
<path d="M0 0 C2.3125 1.5 2.3125 1.5 3.25 3.9375 C3.3125 6.5 3.3125 6.5 1.3125 9.5 C-1.6875 9.8125 -1.6875 9.8125 -4.6875 9.5 C-6.6875 7.5 -6.6875 7.5 -7.0625 5.0625 C-6.6875 2.5 -6.6875 2.5 -5 0.5625 C-2.6875 -0.5 -2.6875 -0.5 0 0 Z M-2.6875 3.5 C-2.6875 4.49 -2.6875 5.48 -2.6875 6.5 C-2.0275 6.5 -1.3675 6.5 -0.6875 6.5 C-0.6875 5.51 -0.6875 4.52 -0.6875 3.5 C-1.3475 3.5 -2.0075 3.5 -2.6875 3.5 Z " fill="#000000" transform="translate(174.6875,70.5)"/>
<path d="M0 0 C2.3125 1.5 2.3125 1.5 3.25 3.9375 C3.3125 6.5 3.3125 6.5 1.3125 9.5 C-1.6875 9.8125 -1.6875 9.8125 -4.6875 9.5 C-6.6875 7.5 -6.6875 7.5 -7.0625 5.0625 C-6.6875 2.5 -6.6875 2.5 -5 0.5625 C-2.6875 -0.5 -2.6875 -0.5 0 0 Z M-2.6875 3.5 C-2.6875 4.49 -2.6875 5.48 -2.6875 6.5 C-2.0275 6.5 -1.3675 6.5 -0.6875 6.5 C-0.6875 5.51 -0.6875 4.52 -0.6875 3.5 C-1.3475 3.5 -2.0075 3.5 -2.6875 3.5 Z " fill="#000000" transform="translate(104.6875,70.5)"/>
<path d="M0 0 C2.01584651 0.61709587 4.01751285 1.28293018 6 2 C6.66 1.67 7.32 1.34 8 1 C7.67 2.32 7.34 3.64 7 5 C4.69 4.67 2.38 4.34 0 4 C0 4.99 0 5.98 0 7 C1.98 6.67 3.96 6.34 6 6 C5.34 7.32 4.68 8.64 4 10 C1.125 10.1875 1.125 10.1875 -2 10 C-4 7 -4 7 -3.8125 4.4375 C-3 2 -3 2 0 0 Z " fill="#000000" transform="translate(39,70)"/>
<path d="M0 0 C2.64 0 5.28 0 8 0 C8.84454356 3.37817425 9.10844919 5.67465243 8 9 C5.36 9 2.72 9 0 9 C0 6.03 0 3.06 0 0 Z " fill="#000000" transform="translate(188,71)"/>
<path d="M0 0 C2.64 0 5.28 0 8 0 C8 2.97 8 5.94 8 9 C5.36 9 2.72 9 0 9 C0 6.03 0 3.06 0 0 Z " fill="#000000" transform="translate(134,71)"/>
<path d="M0 0 C1.32 0 2.64 0 4 0 C4 0.99 4 1.98 4 3 C4.66 3 5.32 3 6 3 C6 2.01 6 1.02 6 0 C6.99 0 7.98 0 9 0 C9 2.97 9 5.94 9 9 C8.01 9 7.02 9 6 9 C6 8.01 6 7.02 6 6 C5.34 6 4.68 6 4 6 C4 6.99 4 7.98 4 9 C2.68 9 1.36 9 0 9 C0 6.03 0 3.06 0 0 Z " fill="#000000" transform="translate(123,71)"/>
<path d="M0 0 C2.64 0 5.28 0 8 0 C8 2.97 8 5.94 8 9 C5.36 9 2.72 9 0 9 C0 6.03 0 3.06 0 0 Z " fill="#000000" transform="translate(64,71)"/>
<path d="M0 0 C2.97 0 5.94 0 9 0 C9 2.97 9 5.94 9 9 C6.03 9 3.06 9 0 9 C0 6.03 0 3.06 0 0 Z M3 3 C3 3.99 3 4.98 3 6 C3.66 6 4.32 6 5 6 C5 5.01 5 4.02 5 3 C4.34 3 3.68 3 3 3 Z " fill="#000000" transform="translate(0,71)"/>
<path d="M0 0 C3.375 -0.1875 3.375 -0.1875 7 0 C9 3 9 3 8.6875 5.625 C8 8 8 8 7 9 C4.66702567 9.04092937 2.33294775 9.04241723 0 9 C0 6.03 0 3.06 0 0 Z M3 3 C3 3.99 3 4.98 3 6 C3.66 5.67 4.32 5.34 5 5 C5 4.34 5 3.68 5 3 C4.34 3 3.68 3 3 3 Z " fill="#000000" transform="translate(74,71)"/>
<path d="M0 0 C3.375 -0.1875 3.375 -0.1875 7 0 C9 3 9 3 8.6875 5.625 C8 8 8 8 7 9 C4.66702567 9.04092937 2.33294775 9.04241723 0 9 C0 6.03 0 3.06 0 0 Z M3 3 C3 3.99 3 4.98 3 6 C3.66 5.67 4.32 5.34 5 5 C5 4.34 5 3.68 5 3 C4.34 3 3.68 3 3 3 Z " fill="#000000" transform="translate(20,71)"/>
<path d="M0 0 C1.875 1.4375 1.875 1.4375 2.6875 4.4375 C2.875 7.4375 2.875 7.4375 1.875 9.4375 C-0.435 9.4375 -2.745 9.4375 -5.125 9.4375 C-5.9502404 6.13653842 -6.49501429 3.6342 -5.125 0.4375 C-2.125 -0.5625 -2.125 -0.5625 0 0 Z " fill="#000000" transform="translate(203.125,70.5625)"/>
<path d="M0 0 C1.32 0.33 2.64 0.66 4 1 C5.32 0.67 6.64 0.34 8 0 C8 2.97 8 5.94 8 9 C5.36 9 2.72 9 0 9 C0 6.03 0 3.06 0 0 Z " fill="#000000" transform="translate(233,71)"/>
<path d="M0 0 C2.3125 1.875 2.3125 1.875 2.75 4.4375 C2.3125 6.875 2.3125 6.875 0.3125 8.875 C-2.37589385 9.14491906 -4.97891936 8.96237357 -7.6875 8.875 C-7.433004 7.39293505 -7.15838238 5.91431385 -6.875 4.4375 C-6.72417969 3.61378906 -6.57335937 2.79007812 -6.41796875 1.94140625 C-6.17691406 1.25949219 -5.93585938 0.57757813 -5.6875 -0.125 C-2.6875 -1.125 -2.6875 -1.125 0 0 Z M-3.6875 2.875 C-3.3575 4.195 -3.0275 5.515 -2.6875 6.875 C-2.0275 6.545 -1.3675 6.215 -0.6875 5.875 C-0.6875 4.885 -0.6875 3.895 -0.6875 2.875 C-1.6775 2.875 -2.6675 2.875 -3.6875 2.875 Z " fill="#000000" transform="translate(228.6875,71.125)"/>
<path d="M0 0 C1.98 0 3.96 0 6 0 C7.10844919 3.32534757 6.84454356 5.62182575 6 9 C4.02 9 2.04 9 0 9 C-0.84454356 5.62182575 -1.10844919 3.32534757 0 0 Z " fill="#000000" transform="translate(208,71)"/>
<path d="M0 0 C1.32 0 2.64 0 4 0 C4.99 2.97 5.98 5.94 7 9 C3.7 9 0.4 9 -3 9 C-2.01 6.03 -1.02 3.06 0 0 Z " fill="#000000" transform="translate(48,71)"/>
<path d="M0 0 C-0.33 2.64 -0.66 5.28 -1 8 C-1.33 8 -1.66 8 -2 8 C-2.144375 6.865625 -2.28875 5.73125 -2.4375 4.5625 C-2.61171478 1.19222799 -2.61171478 1.19222799 -4 0 C-6.34987262 -0.23527773 -8.70556039 -0.41386417 -11.0625 -0.5625 C-13.351875 -0.706875 -15.64125 -0.85125 -18 -1 C-18 6.92 -18 14.84 -18 23 C-17.34 23.33 -16.68 23.66 -16 24 C-16.99 24 -17.98 24 -19 24 C-19 15.42 -19 6.84 -19 -2 C-4.66964286 -3.47321429 -4.66964286 -3.47321429 0 0 Z " fill="#239853" transform="translate(83,21)"/>
<path d="M0 0 C2.64 0 5.28 0 8 0 C7.67 1.98 7.34 3.96 7 6 C6.01 6.33 5.02 6.66 4 7 C4 7.66 4 8.32 4 9 C2.68 9 1.36 9 0 9 C0 6.03 0 3.06 0 0 Z " fill="#000000" transform="translate(179,71)"/>
<path d="M0 0 C2.97 0 5.94 0 9 0 C9 2.97 9 5.94 9 9 C8.34 9 7.68 9 7 9 C7.020625 8.195625 7.04125 7.39125 7.0625 6.5625 C7.29633621 4.06645115 7.29633621 4.06645115 6 3 C6 4.98 6 6.96 6 9 C5.01 9 4.02 9 3 9 C3 7.02 3 5.04 3 3 C2.01 3 1.02 3 0 3 C0 2.01 0 1.02 0 0 Z " fill="#000000" transform="translate(54,71)"/>
<path d="M0 0 C0.66 0.66 1.32 1.32 2 2 C-1.84147426 7.26267902 -4.51152543 9.83207458 -11 11 C-11 10.34 -11 9.68 -11 9 C-14.3 8.67 -17.6 8.34 -21 8 C-21 7.67 -21 7.34 -21 7 C-20.29875 6.97421875 -19.5975 6.9484375 -18.875 6.921875 C-11.54339265 6.48357239 -5.34128164 5.34128164 0 0 Z " fill="#171313" transform="translate(54,45)"/>
<path d="M0 0 C8.19256018 -0.4726477 8.19256018 -0.4726477 11.5625 1.5 C12.036875 1.995 12.51125 2.49 13 3 C11.68 4.32 10.36 5.64 9 7 C8.34 6.34 7.68 5.68 7 5 C4.79749008 4.53993654 4.79749008 4.53993654 2.375 4.375 C1.55773438 4.30023437 0.74046875 4.22546875 -0.1015625 4.1484375 C-0.72804687 4.09945313 -1.35453125 4.05046875 -2 4 C-2 3.34 -2 2.68 -2 2 C-1.34 2 -0.68 2 0 2 C0 1.34 0 0.68 0 0 Z " fill="#1A974B" transform="translate(35,9)"/>
<path d="M0 0 C2.31 0 4.62 0 7 0 C7.33 1.65 7.66 3.3 8 5 C7.360625 5.28875 6.72125 5.5775 6.0625 5.875 C3.84793921 6.82823451 3.84793921 6.82823451 3 9 C2.01 9 1.02 9 0 9 C0 6.03 0 3.06 0 0 Z " fill="#000000" transform="translate(149,71)"/>
<path d="M0 0 C1.98 0 3.96 0 6 0 C5.01 3.63 4.02 7.26 3 11 C2.34 11 1.68 11 1 11 C1 11.66 1 12.32 1 13 C0.34 13 -0.32 13 -1 13 C-1.07654536 8.48382401 -1.10228696 4.40914783 0 0 Z " fill="#139444" transform="translate(146,26)"/>
<path d="M0 0 C2.97 0.495 2.97 0.495 6 1 C6.33 3.64 6.66 6.28 7 9 C4.69 9 2.38 9 0 9 C0 6.03 0 3.06 0 0 Z " fill="#000000" transform="translate(253,71)"/>
<path d="M0 0 C4.62 0 9.24 0 14 0 C14 1.65 14 3.3 14 5 C13.67 4.34 13.34 3.68 13 3 C12.113125 3.33 11.22625 3.66 10.3125 4 C7.26050138 4.92135807 5.1454732 5.34949702 2 5 C1.34 4.34 0.68 3.68 0 3 C0 2.01 0 1.02 0 0 Z " fill="#DCE9E0" transform="translate(91,37)"/>
<path d="M0 0 C2 2 2 2 3 8 C-1.29 7.34 -5.58 6.68 -10 6 C-9.67 4.68 -9.34 3.36 -9 2 C-6.94921875 1.77213542 -4.8984375 1.54427083 -2.84765625 1.31640625 C-0.98859771 1.18113386 -0.98859771 1.18113386 0 0 Z " fill="#191717" transform="translate(100,15)"/>
<path d="M0 0 C2.64 0 5.28 0 8 0 C8 0.99 8 1.98 8 3 C7.34 3 6.68 3 6 3 C6 4.98 6 6.96 6 9 C4.68 9 3.36 9 2 9 C2 7.02 2 5.04 2 3 C1.34 3 0.68 3 0 3 C0 2.01 0 1.02 0 0 Z " fill="#000000" transform="translate(114,71)"/>
<path d="M0 0 C2.64 0 5.28 0 8 0 C8 0.99 8 1.98 8 3 C7.34 3 6.68 3 6 3 C6 4.98 6 6.96 6 9 C4.68 9 3.36 9 2 9 C2 7.02 2 5.04 2 3 C1.34 3 0.68 3 0 3 C0 2.01 0 1.02 0 0 Z " fill="#000000" transform="translate(89,71)"/>
<path d="M0 0 C2.64 0 5.28 0 8 0 C8.042721 1.66611905 8.04063832 3.33382885 8 5 C7 6 7 6 3.4375 6.0625 C2.303125 6.041875 1.16875 6.02125 0 6 C0 4.02 0 2.04 0 0 Z " fill="#FAFBFA" transform="translate(69,24)"/>
<path d="M0 0 C1.65 0 3.3 0 5 0 C6.04127245 3.3131396 6.18574123 4.60198308 4.6875 7.8125 C4.130625 8.534375 3.57375 9.25625 3 10 C2.34 10 1.68 10 1 10 C0.67 6.7 0.34 3.4 0 0 Z " fill="#189543" transform="translate(57,8)"/>
<path d="M0 0 C0.66 0 1.32 0 2 0 C1.690625 0.928125 1.38125 1.85625 1.0625 2.8125 C-0.18898625 7.07455457 -0.41542795 11.3231028 -0.65625 15.7421875 C-0.7696875 16.48726562 -0.883125 17.23234375 -1 18 C-1.66 18.33 -2.32 18.66 -3 19 C-3.0814222 16.77144426 -3.13938079 14.54202345 -3.1875 12.3125 C-3.22230469 11.07113281 -3.25710937 9.82976563 -3.29296875 8.55078125 C-2.98350575 4.80008965 -2.31596695 2.93281045 0 0 Z " fill="#1B9646" transform="translate(25,16)"/>
<path d="M0 0 C1.67542976 0.28604898 3.34385343 0.61781233 5 1 C5 2.65 5 4.3 5 6 C3.34385343 6.38218767 1.67542976 6.71395102 0 7 C-1 6 -1 6 -1.125 3.5 C-1 1 -1 1 0 0 Z " fill="#1F9749" transform="translate(108,16)"/>
<path d="M0 0 C1.32 0 2.64 0 4 0 C4 2.97 4 5.94 4 9 C2.68 9 1.36 9 0 9 C0 6.03 0 3.06 0 0 Z " fill="#000000" transform="translate(30,71)"/>
<path d="M0 0 C0.99 0 1.98 0 3 0 C3.33 2.31 3.66 4.62 4 7 C-2.93 6.505 -2.93 6.505 -10 6 C-10 5.67 -10 5.34 -10 5 C-6.37 5 -2.74 5 1 5 C0.67 3.35 0.34 1.7 0 0 Z " fill="#24994E" transform="translate(101,30)"/>
<path d="M0 0 C1.65 0.33 3.3 0.66 5 1 C4.67 2.65 4.34 4.3 4 6 C3.01 6.33 2.02 6.66 1 7 C0.34 6.34 -0.32 5.68 -1 5 C-0.625 2.375 -0.625 2.375 0 0 Z " fill="#211E1E" transform="translate(154,51)"/>
<path d="M0 0 C0.66 0 1.32 0 2 0 C2.33 1.98 2.66 3.96 3 6 C3.66 6 4.32 6 5 6 C5 6.66 5 7.32 5 8 C5.99 8.33 6.98 8.66 8 9 C7.34 9.66 6.68 10.32 6 11 C3.375 10.625 3.375 10.625 1 10 C-0.1577506 6.52674819 -0.06866652 3.63932552 0 0 Z " fill="#269A53" transform="translate(85,32)"/>
<path d="M0 0 C-0.66 1.32 -1.32 2.64 -2 4 C-3.98 4 -5.96 4 -8 4 C-8 3.67 -8 3.34 -8 3 C-10.31 2.67 -12.62 2.34 -15 2 C-15 1.67 -15 1.34 -15 1 C-13.0641649 0.63684334 -11.12624752 0.28477269 -9.1875 -0.0625 C-8.10855469 -0.25972656 -7.02960938 -0.45695312 -5.91796875 -0.66015625 C-3 -1 -3 -1 0 0 Z " fill="#1A1717" transform="translate(146,57)"/>
<path d="M0 0 C10.56 0 21.12 0 32 0 C32 0.33 32 0.66 32 1 C21.44 1 10.88 1 0 1 C0 0.67 0 0.34 0 0 Z " fill="#000000" transform="translate(55,55)"/>
<path d="M0 0 C1.32 0.33 2.64 0.66 4 1 C4.33 2.65 4.66 4.3 5 6 C4.01 6.66 3.02 7.32 2 8 C1.7215625 7.0409375 1.7215625 7.0409375 1.4375 6.0625 C0.05753944 3.57873787 0.05753944 3.57873787 -3.625 3.25 C-4.73875 3.1675 -5.8525 3.085 -7 3 C-7 2.67 -7 2.34 -7 2 C-4.69 2 -2.38 2 0 2 C0 1.34 0 0.68 0 0 Z " fill="#02923F" transform="translate(76,20)"/>
<path d="M0 0 C8.58 0 17.16 0 26 0 C26 1.98 26 3.96 26 6 C25.67 6 25.34 6 25 6 C25 4.35 25 2.7 25 1 C16.75 1 8.5 1 0 1 C0 0.67 0 0.34 0 0 Z " fill="#010101" transform="translate(100,55)"/>
<path d="M0 0 C1 3 1 3 0 6 C-1 7 -2 8 -3 9 C-4.17574711 11.09989652 -4.17574711 11.09989652 -5 13 C-6.15837626 8.94568308 -5.83691257 6.78187881 -4 3 C-3.01 3 -2.02 3 -1 3 C-0.67 2.01 -0.34 1.02 0 0 Z " fill="#282525" transform="translate(158,30)"/>
<path d="M0 0 C1.98 0 3.96 0 6 0 C6.33 1.32 6.66 2.64 7 4 C4.36 4 1.72 4 -1 4 C-0.67 2.68 -0.34 1.36 0 0 Z " fill="#E6EFE9" transform="translate(92,30)"/>
<path d="M0 0 C0.99 0 1.98 0 3 0 C3 2.97 3 5.94 3 9 C2.01 9 1.02 9 0 9 C0 6.03 0 3.06 0 0 Z " fill="#000000" transform="translate(217,71)"/>
<path d="M0 0 C1.4783226 2.95664519 1.06032783 5.74229737 1 9 C-0.32 8.67 -1.64 8.34 -3 8 C-3.1875 5.125 -3.1875 5.125 -3 2 C-2.01 1.34 -1.02 0.68 0 0 Z " fill="#43A262" transform="translate(35,24)"/>
<path d="M0 0 C0 0.66 0 1.32 0 2 C-2.70879335 3.35439668 -5.00933268 3.06501451 -8 3 C-8.33 2.01 -8.66 1.02 -9 0 C-3.375 -1.125 -3.375 -1.125 0 0 Z " fill="#259951" transform="translate(100,44)"/>
<path d="M0 0 C0.66 0 1.32 0 2 0 C2 4.62 2 9.24 2 14 C0 12 0 12 -0.1953125 9.1796875 C-0.17210937 8.08914062 -0.14890625 6.99859375 -0.125 5.875 C-0.10695312 4.77929688 -0.08890625 3.68359375 -0.0703125 2.5546875 C-0.04710937 1.71164063 -0.02390625 0.86859375 0 0 Z " fill="#350606" transform="translate(209,40)"/>
<path d="M0 0 C0.66 0.66 1.32 1.32 2 2 C0.35 3.98 -1.3 5.96 -3 8 C-4.32 7.34 -5.64 6.68 -7 6 C-6.21625 5.38125 -5.4325 4.7625 -4.625 4.125 C-2.03162353 2.10141339 -2.03162353 2.10141339 0 0 Z " fill="#1C1A1A" transform="translate(54,45)"/>
<path d="M0 0 C2 2 2 2 2.25 5 C2 8 2 8 0 10 C0 9.01 0 8.02 0 7 C-1.98 7 -3.96 7 -6 7 C-6 6.67 -6 6.34 -6 6 C-4.02 6 -2.04 6 0 6 C0 4.02 0 2.04 0 0 Z " fill="#FCFDFC" transform="translate(105,32)"/>
<path d="M0 0 C7.59 0 15.18 0 23 0 C23 0.33 23 0.66 23 1 C15.41 1 7.82 1 0 1 C0 0.67 0 0.34 0 0 Z " fill="#000000" transform="translate(116,8)"/>
<path d="M0 0 C0.33 0 0.66 0 1 0 C1 6.93 1 13.86 1 21 C0.67 21 0.34 21 0 21 C0 14.07 0 7.14 0 0 Z " fill="#330000" transform="translate(162,33)"/>
<path d="M0 0 C2.31 0 4.62 0 7 0 C6.67 1.65 6.34 3.3 6 5 C4.68 5 3.36 5 2 5 C2 3.68 2 2.36 2 1 C1.34 0.67 0.68 0.34 0 0 Z " fill="#39A266" transform="translate(91,25)"/>
<path d="M0 0 C1.08667969 0.29197266 1.08667969 0.29197266 2.1953125 0.58984375 C2.74960938 0.74582031 3.30390625 0.90179688 3.875 1.0625 C3.875 1.3925 3.875 1.7225 3.875 2.0625 C1.895 2.0625 -0.085 2.0625 -2.125 2.0625 C-2.455 2.7225 -2.785 3.3825 -3.125 4.0625 C-4.115 2.7425 -5.105 1.4225 -6.125 0.0625 C-3.57797384 -1.21101308 -2.6967055 -0.73941925 0 0 Z " fill="#0A923E" transform="translate(93.125,41.9375)"/>
<path d="M0 0 C6.27 0 12.54 0 19 0 C19 0.33 19 0.66 19 1 C12.73 1 6.46 1 0 1 C0 0.67 0 0.34 0 0 Z " fill="#000000" transform="translate(196,8)"/>
<path d="M0 0 C1.65 0.33 3.3 0.66 5 1 C5 1.99 5 2.98 5 4 C2.69 4 0.38 4 -2 4 C-2 3.34 -2 2.68 -2 2 C-1.34 2 -0.68 2 0 2 C0 1.34 0 0.68 0 0 Z " fill="#229853" transform="translate(35,9)"/>
<path d="M0 0 C5.61 0 11.22 0 17 0 C17 0.33 17 0.66 17 1 C11.39 1 5.78 1 0 1 C0 0.67 0 0.34 0 0 Z " fill="#0B0000" transform="translate(127,62)"/>
<path d="M0 0 C1.875 0.1875 1.875 0.1875 4 1 C5.25 3.5625 5.25 3.5625 6 6 C5.34 6.66 4.68 7.32 4 8 C3.67 6.02 3.34 4.04 3 2 C2.01 1.67 1.02 1.34 0 1 C0 0.67 0 0.34 0 0 Z " fill="#19964A" transform="translate(48,14)"/>
<path d="M0 0 C0.33 0 0.66 0 1 0 C1 4.62 1 9.24 1 14 C0.34 13.67 -0.32 13.34 -1 13 C-0.67 8.71 -0.34 4.42 0 0 Z " fill="#201414" transform="translate(203,16)"/>
<path d="M0 0 C0.33 0 0.66 0 1 0 C1.22142255 1.95689659 1.4267568 3.91561952 1.625 5.875 C1.74101562 6.96554688 1.85703125 8.05609375 1.9765625 9.1796875 C1.98429688 10.11039063 1.99203125 11.04109375 2 12 C1.34 12.66 0.68 13.32 0 14 C0 9.38 0 4.76 0 0 Z " fill="#181717" transform="translate(213,16)"/>
<path d="M0 0 C3.63 0 7.26 0 11 0 C11 0.33 11 0.66 11 1 C7.37 1 3.74 1 0 1 C0 0.67 0 0.34 0 0 Z " fill="#170000" transform="translate(33,57)"/>
<path d="M0 0 C0.33 0.66 0.66 1.32 1 2 C3.64 2 6.28 2 9 2 C9 2.33 9 2.66 9 3 C6.03 3 3.06 3 0 3 C0 2.01 0 1.02 0 0 Z " fill="#0F0303" transform="translate(72,6)"/>
<path d="M0 0 C0.99 0.495 0.99 0.495 2 1 C2 3.31 2 5.62 2 8 C1.67 8 1.34 8 1 8 C0.67 5.36 0.34 2.72 0 0 Z " fill="#170A0A" transform="translate(190,33)"/>
<path d="M0 0 C0.33 0 0.66 0 1 0 C1 2.97 1 5.94 1 9 C0.67 9 0.34 9 0 9 C0 6.03 0 3.06 0 0 Z " fill="#000000" transform="translate(147,71)"/>
<path d="M0 0 C3.125 0.375 3.125 0.375 6 1 C6 1.33 6 1.66 6 2 C3.36 2 0.72 2 -2 2 C-1.34 1.34 -0.68 0.68 0 0 Z " fill="#100909" transform="translate(228,30)"/>
<path d="M0 0 C2.64 0 5.28 0 8 0 C8 0.33 8 0.66 8 1 C5.36 1 2.72 1 0 1 C0 0.67 0 0.34 0 0 Z " fill="#000000" transform="translate(188,69)"/>
<path d="M0 0 C2.64 0 5.28 0 8 0 C8 0.33 8 0.66 8 1 C5.36 1 2.72 1 0 1 C0 0.67 0 0.34 0 0 Z " fill="#000000" transform="translate(134,69)"/>
<path d="M0 0 C2.64 0 5.28 0 8 0 C8 0.33 8 0.66 8 1 C5.36 1 2.72 1 0 1 C0 0.67 0 0.34 0 0 Z " fill="#000000" transform="translate(114,69)"/>
<path d="M0 0 C2.64 0 5.28 0 8 0 C8 0.33 8 0.66 8 1 C5.36 1 2.72 1 0 1 C0 0.67 0 0.34 0 0 Z " fill="#000000" transform="translate(89,69)"/>
<path d="M0 0 C2.64 0 5.28 0 8 0 C8 0.33 8 0.66 8 1 C5.36 1 2.72 1 0 1 C0 0.67 0 0.34 0 0 Z " fill="#000000" transform="translate(64,69)"/>
<path d="M0 0 C2.64 0 5.28 0 8 0 C8 0.33 8 0.66 8 1 C5.36 1 2.72 1 0 1 C0 0.67 0 0.34 0 0 Z " fill="#000000" transform="translate(54,69)"/>
<path d="M0 0 C2.64 0 5.28 0 8 0 C8 0.33 8 0.66 8 1 C5.36 1 2.72 1 0 1 C0 0.67 0 0.34 0 0 Z " fill="#000000" transform="translate(10,69)"/>
<path d="M0 0 C2.64 0 5.28 0 8 0 C8 0.33 8 0.66 8 1 C5.36 1 2.72 1 0 1 C0 0.67 0 0.34 0 0 Z " fill="#000000" transform="translate(91,56)"/>
<path d="M0 0 C2 3.75 2 3.75 2 6 C1.34 6 0.68 6 0 6 C0 4.02 0 2.04 0 0 Z " fill="#160606" transform="translate(220,47)"/>
<path d="M0 0 C2.625 0.375 2.625 0.375 5 1 C5 1.33 5 1.66 5 2 C2.69 2 0.38 2 -2 2 C-1.34 1.34 -0.68 0.68 0 0 Z " fill="#0C0404" transform="translate(200,30)"/>
<path d="M0 0 C2.64 0 5.28 0 8 0 C8 0.33 8 0.66 8 1 C5.36 1 2.72 1 0 1 C0 0.67 0 0.34 0 0 Z " fill="#200000" transform="translate(106,6)"/>
<path d="M0 0 C2.31 0 4.62 0 7 0 C7 0.33 7 0.66 7 1 C4.69 1 2.38 1 0 1 C0 0.67 0 0.34 0 0 Z " fill="#000000" transform="translate(179,69)"/>
<path d="M0 0 C2.31 0 4.62 0 7 0 C7 0.33 7 0.66 7 1 C4.69 1 2.38 1 0 1 C0 0.67 0 0.34 0 0 Z " fill="#000000" transform="translate(159,69)"/>
<path d="M0 0 C2.31 0 4.62 0 7 0 C7 0.33 7 0.66 7 1 C4.69 1 2.38 1 0 1 C0 0.67 0 0.34 0 0 Z " fill="#000000" transform="translate(149,69)"/>
<path d="M0 0 C2.31 0 4.62 0 7 0 C7 0.33 7 0.66 7 1 C4.69 1 2.38 1 0 1 C0 0.67 0 0.34 0 0 Z " fill="#000000" transform="translate(74,69)"/>
<path d="M0 0 C2.31 0 4.62 0 7 0 C7 0.33 7 0.66 7 1 C4.69 1 2.38 1 0 1 C0 0.67 0 0.34 0 0 Z " fill="#000000" transform="translate(20,69)"/>
<path d="M0 0 C2.31 0 4.62 0 7 0 C7 0.33 7 0.66 7 1 C4.69 1 2.38 1 0 1 C0 0.67 0 0.34 0 0 Z " fill="#000000" transform="translate(0,69)"/>
<path d="M0 0 C2.31 0 4.62 0 7 0 C7 0.33 7 0.66 7 1 C4.69 1 2.38 1 0 1 C0 0.67 0 0.34 0 0 Z " fill="#2D0000" transform="translate(202,55)"/>
<path d="M0 0 C2.31 0 4.62 0 7 0 C7 0.33 7 0.66 7 1 C4.69 1 2.38 1 0 1 C0 0.67 0 0.34 0 0 Z " fill="#2D0000" transform="translate(176,55)"/>
<path d="M0 0 C0.33 0.99 0.66 1.98 1 3 C1.66 3.33 2.32 3.66 3 4 C1.68 3.67 0.36 3.34 -1 3 C-0.67 2.01 -0.34 1.02 0 0 Z " fill="#120000" transform="translate(155,46)"/>
<path d="M0 0 C1.32 1.32 2.64 2.64 4 4 C2.68 3.34 1.36 2.68 0 2 C0 1.34 0 0.68 0 0 Z " fill="#090000" transform="translate(19,48)"/>
<path d="M0 0 C2.31 0 4.62 0 7 0 C7 0.33 7 0.66 7 1 C4.69 1 2.38 1 0 1 C0 0.67 0 0.34 0 0 Z " fill="#320505" transform="translate(91,15)"/>
<path d="M0 0 C2.31 0 4.62 0 7 0 C7 0.33 7 0.66 7 1 C4.69 1 2.38 1 0 1 C0 0.67 0 0.34 0 0 Z " fill="#000000" transform="translate(176,8)"/>
<path d="M0 0 C0.66 1.32 1.32 2.64 2 4 C1.01 4.495 1.01 4.495 0 5 C0 3.35 0 1.7 0 0 Z " fill="#000000" transform="translate(96,75)"/>
<path d="M0 0 C0 0.99 0 1.98 0 3 C-0.66 3 -1.32 3 -2 3 C-2 2.34 -2 1.68 -2 1 C-1.34 0.67 -0.68 0.34 0 0 Z " fill="#000000" transform="translate(186,77)"/>
<path d="M0 0 C1.98 0 3.96 0 6 0 C6 0.33 6 0.66 6 1 C4.02 1 2.04 1 0 1 C0 0.67 0 0.34 0 0 Z " fill="#2A0000" transform="translate(212,55)"/>
<path d="M0 0 C1.98 0 3.96 0 6 0 C6 0.33 6 0.66 6 1 C4.02 1 2.04 1 0 1 C0 0.67 0 0.34 0 0 Z " fill="#350000" transform="translate(194,55)"/>
<path d="M0 0 C1.98 0 3.96 0 6 0 C6 0.33 6 0.66 6 1 C4.02 1 2.04 1 0 1 C0 0.67 0 0.34 0 0 Z " fill="#350000" transform="translate(187,55)"/>
<path d="M0 0 C1.98 0 3.96 0 6 0 C6 0.33 6 0.66 6 1 C4.02 1 2.04 1 0 1 C0 0.67 0 0.34 0 0 Z " fill="#350000" transform="translate(164,55)"/>
<path d="M0 0 C0.33 0 0.66 0 1 0 C1 1.98 1 3.96 1 6 C0.67 6 0.34 6 0 6 C0 4.02 0 2.04 0 0 Z " fill="#200000" transform="translate(238,45)"/>
<path d="M0 0 C0.99 0 1.98 0 3 0 C2.67 1.32 2.34 2.64 2 4 C2 3.01 2 2.02 2 1 C1.34 0.67 0.68 0.34 0 0 Z " fill="#200000" transform="translate(173,47)"/>
<path d="M0 0 C0.33 0 0.66 0 1 0 C1 1.98 1 3.96 1 6 C0.67 6 0.34 6 0 6 C0 4.02 0 2.04 0 0 Z " fill="#150000" transform="translate(12,20)"/>
<path d="M0 0 C1.98 0 3.96 0 6 0 C6 0.33 6 0.66 6 1 C4.02 1 2.04 1 0 1 C0 0.67 0 0.34 0 0 Z " fill="#000000" transform="translate(187,8)"/>
<path d="M0 0 C0.33 0 0.66 0 1 0 C1 1.65 1 3.3 1 5 C0.67 5 0.34 5 0 5 C0 3.35 0 1.7 0 0 Z " fill="#000000" transform="translate(121,75)"/>
<path d="M0 0 C0.33 0 0.66 0 1 0 C1 1.65 1 3.3 1 5 C0.67 5 0.34 5 0 5 C0 3.35 0 1.7 0 0 Z " fill="#000000" transform="translate(114,75)"/>
<path d="M0 0 C0.33 0 0.66 0 1 0 C1 1.65 1 3.3 1 5 C0.67 5 0.34 5 0 5 C0 3.35 0 1.7 0 0 Z " fill="#000000" transform="translate(89,75)"/>
<path d="M0 0 C0.66 0 1.32 0 2 0 C1.67 1.32 1.34 2.64 1 4 C0.67 2.68 0.34 1.36 0 0 Z " fill="#000000" transform="translate(54,75)"/>
<path d="M0 0 C0.33 0 0.66 0 1 0 C1 1.65 1 3.3 1 5 C0.67 5 0.34 5 0 5 C0 3.35 0 1.7 0 0 Z " fill="#000000" transform="translate(172,48)"/>
<path d="M0 0 C0.33 0.66 0.66 1.32 1 2 C1.66 2.33 2.32 2.66 3 3 C2.01 3 1.02 3 0 3 C0 2.01 0 1.02 0 0 Z " fill="#121212" transform="translate(222,43)"/>
<path d="M0 0 C0.33 0 0.66 0 1 0 C1 1.65 1 3.3 1 5 C0.67 5 0.34 5 0 5 C0 3.35 0 1.7 0 0 Z " fill="#190000" transform="translate(12,32)"/>
<path d="M0 0 C1.32 0.33 2.64 0.66 4 1 C3.01 1.33 2.02 1.66 1 2 C0.67 1.34 0.34 0.68 0 0 Z " fill="#220808" transform="translate(222,32)"/>
<path d="M0 0 C0.33 0 0.66 0 1 0 C1 1.65 1 3.3 1 5 C0.67 5 0.34 5 0 5 C0 3.35 0 1.7 0 0 Z " fill="#000000" transform="translate(11,26)"/>
<path d="M0 0 C0.33 0 0.66 0 1 0 C1 1.65 1 3.3 1 5 C0.67 5 0.34 5 0 5 C0 3.35 0 1.7 0 0 Z " fill="#0C0000" transform="translate(231,22)"/>
<path d="M0 0 C0.33 0 0.66 0 1 0 C1 1.65 1 3.3 1 5 C0.67 5 0.34 5 0 5 C0 3.35 0 1.7 0 0 Z " fill="#190000" transform="translate(231,13)"/>
<path d="M0 0 C0.33 0 0.66 0 1 0 C1 1.65 1 3.3 1 5 C0.67 5 0.34 5 0 5 C0 3.35 0 1.7 0 0 Z " fill="#221515" transform="translate(185,10)"/>
<path d="M0 0 C0.99 0.33 1.98 0.66 3 1 C2.67 1.66 2.34 2.32 2 3 C1.34 2.01 0.68 1.02 0 0 Z " fill="#000000" transform="translate(86,12)"/>
<path d="M0 0 C1.65 0 3.3 0 5 0 C5 0.33 5 0.66 5 1 C3.35 1 1.7 1 0 1 C0 0.67 0 0.34 0 0 Z " fill="#000000" transform="translate(220,7)"/>
<path d="M0 0 C0 3 0 3 0 3 Z " fill="#000000" transform="translate(156,77)"/>
<path d="M0 0 C4 1 4 1 4 1 Z " fill="#000000" transform="translate(245,69)"/>
<path d="M0 0 C4 1 4 1 4 1 Z " fill="#000000" transform="translate(48,69)"/>
<path d="M0 0 C4 1 4 1 4 1 Z " fill="#100000" transform="translate(230,55)"/>
<path d="M0 0 C0.66 0 1.32 0 2 0 C2 0.66 2 1.32 2 2 C1.34 2 0.68 2 0 2 C0 1.34 0 0.68 0 0 Z " fill="#151515" transform="translate(184,52)"/>
<path d="M0 0 C1 4 1 4 1 4 Z " fill="#000000" transform="translate(160,52)"/>
<path d="M0 0 C1 4 1 4 1 4 Z " fill="#100000" transform="translate(158,36)"/>
<path d="M0 0 C1 4 1 4 1 4 Z " fill="#100000" transform="translate(169,26)"/>
<path d="M0 0 C1 4 1 4 1 4 Z " fill="#200000" transform="translate(170,22)"/>
<path d="M0 0 C1 4 1 4 1 4 Z " fill="#200000" transform="translate(171,18)"/>
<path d="M0 0 C1 4 1 4 1 4 Z " fill="#200000" transform="translate(172,14)"/>
<path d="M0 0 C1 4 1 4 1 4 Z " fill="#200000" transform="translate(173,10)"/>
<path d="" fill="#000000" transform="translate(0,0)"/>
<path d="" fill="#000000" transform="translate(0,0)"/>
<path d="" fill="#000000" transform="translate(0,0)"/>
<path d="" fill="#000000" transform="translate(0,0)"/>
<path d="" fill="#000000" transform="translate(0,0)"/>
<path d="M0 0 C3 1 3 1 3 1 Z " fill="#000000" transform="translate(253,69)"/>
<path d="M0 0 C3 1 3 1 3 1 Z " fill="#000000" transform="translate(238,69)"/>
<path d="M0 0 C3 1 3 1 3 1 Z " fill="#000000" transform="translate(233,69)"/>
<path d="M0 0 C3 1 3 1 3 1 Z " fill="#000000" transform="translate(223,69)"/>
<path d="M0 0 C3 1 3 1 3 1 Z " fill="#000000" transform="translate(217,69)"/>
<path d="M0 0 C3 1 3 1 3 1 Z " fill="#000000" transform="translate(198,69)"/>
<path d="M0 0 C3 1 3 1 3 1 Z " fill="#000000" transform="translate(129,69)"/>
<path d="M0 0 C3 1 3 1 3 1 Z " fill="#000000" transform="translate(124,69)"/>
<path d="M0 0 C3 1 3 1 3 1 Z " fill="#150000" transform="translate(44,56)"/>
<path d="M0 0 C3 1 3 1 3 1 Z " fill="#150000" transform="translate(30,56)"/>
<path d="M0 0 C3 1 3 1 3 1 Z " fill="#150000" transform="translate(225,55)"/>
<path d="M0 0 C3 1 3 1 3 1 Z " fill="#150000" transform="translate(88,55)"/>
<path d="M0 0 C3 1 3 1 3 1 Z " fill="#150000" transform="translate(47,55)"/>
<path d="M0 0 C3 1 3 1 3 1 Z " fill="#150000" transform="translate(27,55)"/>
<path d="" fill="#2A0000" transform="translate(0,0)"/>
<path d="" fill="#000000" transform="translate(0,0)"/>
<path d="" fill="#150000" transform="translate(0,0)"/>
<path d="" fill="#150000" transform="translate(0,0)"/>
<path d="" fill="#150000" transform="translate(0,0)"/>
<path d="" fill="#150000" transform="translate(0,0)"/>
<path d="M0 0 C3 1 3 1 3 1 Z " fill="#150000" transform="translate(205,32)"/>
<path d="" fill="#150000" transform="translate(0,0)"/>
<path d="" fill="#150000" transform="translate(0,0)"/>
<path d="" fill="#150000" transform="translate(0,0)"/>
<path d="" fill="#150000" transform="translate(0,0)"/>
<path d="" fill="#150000" transform="translate(0,0)"/>
<path d="M0 0 C3 1 3 1 3 1 Z " fill="#150000" transform="translate(45,0)"/>
<path d="M0 0 C3 1 3 1 3 1 Z " fill="#150000" transform="translate(30,0)"/>
<path d="" fill="#000000" transform="translate(0,0)"/>
<path d="M0 0 C2 1 2 1 2 1 Z " fill="#000000" transform="translate(153,79)"/>
<path d="" fill="#000000" transform="translate(0,0)"/>
<path d="" fill="#000000" transform="translate(0,0)"/>
<path d="" fill="#000000" transform="translate(0,0)"/>
<path d="" fill="#000000" transform="translate(0,0)"/>
<path d="" fill="#000000" transform="translate(0,0)"/>
<path d="" fill="#000000" transform="translate(0,0)"/>
<path d="" fill="#000000" transform="translate(0,0)"/>
<path d="" fill="#000000" transform="translate(0,0)"/>
<path d="M0 0 C2 1 2 1 2 1 Z " fill="#000000" transform="translate(167,71)"/>
<path d="M0 0 C2 1 2 1 2 1 Z " fill="#000000" transform="translate(229,70)"/>
<path d="M0 0 C2 1 2 1 2 1 Z " fill="#000000" transform="translate(132,70)"/>
<path d="M0 0 C2 1 2 1 2 1 Z " fill="#000000" transform="translate(227,69)"/>
<path d="M0 0 C2 1 2 1 2 1 Z " fill="#000000" transform="translate(212,69)"/>
<path d="M0 0 C2 1 2 1 2 1 Z " fill="#000000" transform="translate(208,69)"/>
<path d="M0 0 C2 1 2 1 2 1 Z " fill="#000000" transform="translate(202,69)"/>
<path d="M0 0 C2 1 2 1 2 1 Z " fill="#000000" transform="translate(174,69)"/>
<path d="M0 0 C2 1 2 1 2 1 Z " fill="#000000" transform="translate(170,69)"/>
<path d="M0 0 C2 1 2 1 2 1 Z " fill="#000000" transform="translate(104,69)"/>
<path d="M0 0 C2 1 2 1 2 1 Z " fill="#000000" transform="translate(100,69)"/>
<path d="M0 0 C2 1 2 1 2 1 Z " fill="#000000" transform="translate(41,69)"/>
<path d="M0 0 C2 1 2 1 2 1 Z " fill="#000000" transform="translate(37,69)"/>
<path d="M0 0 C2 1 2 1 2 1 Z " fill="#000000" transform="translate(31,69)"/>
<path d="M0 0 C2 1 2 1 2 1 Z " fill="#000000" transform="translate(210,68)"/>
<path d="M0 0 C2 1 2 1 2 1 Z " fill="#000000" transform="translate(102,68)"/>
<path d="M0 0 C2 1 2 1 2 1 Z " fill="#000000" transform="translate(39,68)"/>
<path d="M0 0 C2 1 2 1 2 1 Z " fill="#200000" transform="translate(144,61)"/>
<path d="M0 0 C2 1 2 1 2 1 Z " fill="#000000" transform="translate(146,60)"/>
<path d="M0 0 C2 1 2 1 2 1 Z " fill="#200000" transform="translate(151,56)"/>
<path d="M0 0 C2 1 2 1 2 1 Z " fill="#000000" transform="translate(223,54)"/>
<path d="M0 0 C2 1 2 1 2 1 Z " fill="#000000" transform="translate(200,54)"/>
<path d="" fill="#000000" transform="translate(0,0)"/>
<path d="M0 0 C2 1 2 1 2 1 Z " fill="#000000" transform="translate(51,53)"/>
<path d="M0 0 C2 1 2 1 2 1 Z " fill="#000000" transform="translate(24,53)"/>
<path d="" fill="#000000" transform="translate(0,0)"/>
<path d="" fill="#000000" transform="translate(0,0)"/>
<path d="M0 0 C2 1 2 1 2 1 Z " fill="#191919" transform="translate(234,41)"/>
<path d="" fill="#200000" transform="translate(0,0)"/>
<path d="M0 0 C2 1 2 1 2 1 Z " fill="#191919" transform="translate(175,32)"/>
<path d="" fill="#000000" transform="translate(0,0)"/>
<path d="" fill="#121212" transform="translate(0,0)"/>
<path d="" fill="#000000" transform="translate(0,0)"/>
<path d="" fill="#200000" transform="translate(0,0)"/>
<path d="" fill="#000000" transform="translate(0,0)"/>
<path d="" fill="#200000" transform="translate(0,0)"/>
<path d="" fill="#000000" transform="translate(0,0)"/>
<path d="" fill="#000000" transform="translate(0,0)"/>
<path d="" fill="#000000" transform="translate(0,0)"/>
<path d="M0 0 C2 1 2 1 2 1 Z " fill="#000000" transform="translate(83,10)"/>
<path d="M0 0 C2 1 2 1 2 1 Z " fill="#000000" transform="translate(216,9)"/>
<path d="M0 0 C2 1 2 1 2 1 Z " fill="#000000" transform="translate(101,9)"/>
<path d="M0 0 C2 1 2 1 2 1 Z " fill="#000000" transform="translate(81,9)"/>
<path d="M0 0 C2 1 2 1 2 1 Z " fill="#200000" transform="translate(226,8)"/>
<path d="M0 0 C2 1 2 1 2 1 Z " fill="#000000" transform="translate(218,8)"/>
<path d="M0 0 C2 1 2 1 2 1 Z " fill="#200000" transform="translate(114,7)"/>
<path d="M0 0 C2 1 2 1 2 1 Z " fill="#200000" transform="translate(104,7)"/>
<path d="" fill="#000000" transform="translate(0,0)"/>
<path d="M0 0 C2 1 2 1 2 1 Z " fill="#200000" transform="translate(24,3)"/>
<path d="M0 0 C2 1 2 1 2 1 Z " fill="#000000" transform="translate(26,2)"/>
<path d="M0 0 C2 1 2 1 2 1 Z " fill="#200000" transform="translate(48,1)"/>
<path d="M0 0 C2 1 2 1 2 1 Z " fill="#000000" transform="translate(28,1)"/>
<path d="M0 0 C2 1 2 1 2 1 Z " fill="#000000" transform="translate(66,0)"/>
<path d="" fill="#000000" transform="translate(0,0)"/>
<path d="" fill="#000000" transform="translate(0,0)"/>
<path d="" fill="#000000" transform="translate(0,0)"/>
<path d="" fill="#000000" transform="translate(0,0)"/>
<path d="" fill="#000000" transform="translate(0,0)"/>
<path d="" fill="#000000" transform="translate(0,0)"/>
<path d="" fill="#000000" transform="translate(0,0)"/>
<path d="" fill="#000000" transform="translate(0,0)"/>
<path d="" fill="#000000" transform="translate(0,0)"/>
<path d="" fill="#000000" transform="translate(0,0)"/>
<path d="" fill="#000000" transform="translate(0,0)"/>
<path d="" fill="#000000" transform="translate(0,0)"/>
<path d="" fill="#000000" transform="translate(0,0)"/>
<path d="" fill="#000000" transform="translate(0,0)"/>
<path d="" fill="#000000" transform="translate(0,0)"/>
<path d="" fill="#000000" transform="translate(0,0)"/>
<path d="" fill="#000000" transform="translate(0,0)"/>
<path d="" fill="#000000" transform="translate(0,0)"/>
<path d="" fill="#000000" transform="translate(0,0)"/>
<path d="" fill="#000000" transform="translate(0,0)"/>
<path d="" fill="#000000" transform="translate(0,0)"/>
<path d="" fill="#000000" transform="translate(0,0)"/>
<path d="" fill="#000000" transform="translate(0,0)"/>
<path d="" fill="#000000" transform="translate(0,0)"/>
<path d="" fill="#000000" transform="translate(0,0)"/>
<path d="" fill="#000000" transform="translate(0,0)"/>
<path d="" fill="#000000" transform="translate(0,0)"/>
<path d="" fill="#000000" transform="translate(0,0)"/>
<path d="" fill="#000000" transform="translate(0,0)"/>
<path d="" fill="#000000" transform="translate(0,0)"/>
<path d="" fill="#000000" transform="translate(0,0)"/>
<path d="" fill="#000000" transform="translate(0,0)"/>
<path d="" fill="#000000" transform="translate(0,0)"/>
<path d="" fill="#000000" transform="translate(0,0)"/>
<path d="" fill="#000000" transform="translate(0,0)"/>
<path d="" fill="#000000" transform="translate(0,0)"/>
<path d="" fill="#000000" transform="translate(0,0)"/>
<path d="" fill="#000000" transform="translate(0,0)"/>
<path d="" fill="#000000" transform="translate(0,0)"/>
<path d="" fill="#000000" transform="translate(0,0)"/>
<path d="" fill="#000000" transform="translate(0,0)"/>
<path d="" fill="#000000" transform="translate(0,0)"/>
<path d="" fill="#000000" transform="translate(0,0)"/>
<path d="" fill="#000000" transform="translate(0,0)"/>
<path d="" fill="#000000" transform="translate(0,0)"/>
<path d="" fill="#000000" transform="translate(0,0)"/>
<path d="" fill="#000000" transform="translate(0,0)"/>
<path d="" fill="#000000" transform="translate(0,0)"/>
<path d="" fill="#000000" transform="translate(0,0)"/>
<path d="" fill="#000000" transform="translate(0,0)"/>
<path d="" fill="#000000" transform="translate(0,0)"/>
<path d="" fill="#000000" transform="translate(0,0)"/>
<path d="" fill="#000000" transform="translate(0,0)"/>
<path d="" fill="#000000" transform="translate(0,0)"/>
<path d="" fill="#000000" transform="translate(0,0)"/>
<path d="" fill="#000000" transform="translate(0,0)"/>
<path d="" fill="#000000" transform="translate(0,0)"/>
<path d="" fill="#000000" transform="translate(0,0)"/>
<path d="" fill="#000000" transform="translate(0,0)"/>
<path d="" fill="#000000" transform="translate(0,0)"/>
<path d="" fill="#000000" transform="translate(0,0)"/>
<path d="" fill="#000000" transform="translate(0,0)"/>
<path d="" fill="#000000" transform="translate(0,0)"/>
<path d="" fill="#000000" transform="translate(0,0)"/>
<path d="" fill="#000000" transform="translate(0,0)"/>
<path d="" fill="#000000" transform="translate(0,0)"/>
<path d="" fill="#000000" transform="translate(0,0)"/>
<path d="" fill="#000000" transform="translate(0,0)"/>
<path d="" fill="#000000" transform="translate(0,0)"/>
<path d="" fill="#000000" transform="translate(0,0)"/>
<path d="" fill="#400000" transform="translate(0,0)"/>
<path d="" fill="#000000" transform="translate(0,0)"/>
<path d="" fill="#000000" transform="translate(0,0)"/>
<path d="" fill="#400000" transform="translate(0,0)"/>
<path d="" fill="#000000" transform="translate(0,0)"/>
<path d="" fill="#000000" transform="translate(0,0)"/>
<path d="" fill="#400000" transform="translate(0,0)"/>
<path d="" fill="#000000" transform="translate(0,0)"/>
<path d="" fill="#000000" transform="translate(0,0)"/>
<path d="" fill="#000000" transform="translate(0,0)"/>
<path d="" fill="#000000" transform="translate(0,0)"/>
<path d="" fill="#000000" transform="translate(0,0)"/>
<path d="" fill="#000000" transform="translate(0,0)"/>
<path d="" fill="#000000" transform="translate(0,0)"/>
<path d="" fill="#000000" transform="translate(0,0)"/>
<path d="" fill="#400000" transform="translate(0,0)"/>
<path d="" fill="#400000" transform="translate(0,0)"/>
<path d="" fill="#400000" transform="translate(0,0)"/>
<path d="" fill="#000000" transform="translate(0,0)"/>
<path d="" fill="#000000" transform="translate(0,0)"/>
<path d="" fill="#000000" transform="translate(0,0)"/>
<path d="" fill="#400000" transform="translate(0,0)"/>
<path d="" fill="#400000" transform="translate(0,0)"/>
<path d="" fill="#400000" transform="translate(0,0)"/>
<path d="" fill="#000000" transform="translate(0,0)"/>
<path d="" fill="#000000" transform="translate(0,0)"/>
<path d="" fill="#1C1C1C" transform="translate(0,0)"/>
<path d="" fill="#400000" transform="translate(0,0)"/>
<path d="" fill="#000000" transform="translate(0,0)"/>
<path d="" fill="#242424" transform="translate(0,0)"/>
<path d="" fill="#400000" transform="translate(0,0)"/>
<path d="" fill="#400000" transform="translate(0,0)"/>
<path d="" fill="#000000" transform="translate(0,0)"/>
<path d="" fill="#000000" transform="translate(0,0)"/>
<path d="" fill="#000000" transform="translate(0,0)"/>
<path d="" fill="#000000" transform="translate(0,0)"/>
<path d="" fill="#000000" transform="translate(0,0)"/>
<path d="" fill="#000000" transform="translate(0,0)"/>
<path d="" fill="#000000" transform="translate(0,0)"/>
<path d="" fill="#000000" transform="translate(0,0)"/>
<path d="" fill="#000000" transform="translate(0,0)"/>
<path d="" fill="#000000" transform="translate(0,0)"/>
<path d="" fill="#000000" transform="translate(0,0)"/>
<path d="" fill="#000000" transform="translate(0,0)"/>
<path d="" fill="#400000" transform="translate(0,0)"/>
<path d="" fill="#400000" transform="translate(0,0)"/>
<path d="" fill="#400000" transform="translate(0,0)"/>
<path d="" fill="#400000" transform="translate(0,0)"/>
<path d="" fill="#000000" transform="translate(0,0)"/>
<path d="" fill="#000000" transform="translate(0,0)"/>
<path d="" fill="#000000" transform="translate(0,0)"/>
<path d="" fill="#400000" transform="translate(0,0)"/>
<path d="" fill="#400000" transform="translate(0,0)"/>
<path d="" fill="#333333" transform="translate(0,0)"/>
<path d="" fill="#333333" transform="translate(0,0)"/>
<path d="" fill="#333333" transform="translate(0,0)"/>
<path d="" fill="#400000" transform="translate(0,0)"/>
<path d="" fill="#400000" transform="translate(0,0)"/>
<path d="" fill="#000000" transform="translate(0,0)"/>
<path d="" fill="#000000" transform="translate(0,0)"/>
<path d="" fill="#2A2A2A" transform="translate(0,0)"/>
<path d="" fill="#000000" transform="translate(0,0)"/>
<path d="" fill="#400000" transform="translate(0,0)"/>
<path d="" fill="#400000" transform="translate(0,0)"/>
</svg>
